<svg role="img" viewBox="0 0 24 24" xmlns="http://www.w3.org/2000/svg"><title>Docker</title><path fill="#2496ED" d="M13.983 11.078h2.119a.186.186 0 00.186-.185V9.006a.186.186 0 00-.186-.186h-2.119a.185.185 0 00-.185.185v1.888c0 .102.083.185.185.185m-2.954-5.43h2.118a.186.186 0 00.186-.186V3.574a.186.186 0 00-.186-.185h-2.118a.185.185 0 00-.185.185v1.888c0 .102.082.185.185.185m0 2.716h2.118a.187.187 0 00.186-.186V6.29a.186.186 0 00-.186-.185h-2.118a.185.185 0 00-.185.185v1.887c0 .102.082.185.185.186m-2.93 0h2.12a.186.186 0 00.184-.186V6.29a.185.185 0 00-.185-.185H8.1a.185.185 0 00-.185.185v1.887c0 .102.083.185.185.186m-2.964 0h2.119a.186.186 0 00.185-.186V6.29a.185.185 0 00-.185-.185H5.136a.186.186 0 00-.186.185v1.887c0 .102.084.185.186.186m5.893 2.715h2.118a.186.186 0 00.186-.185V9.006a.186.186 0 00-.186-.186h-2.118a.185.185 0 00-.185.185v1.888c0 .102.082.185.185.185m-2.93 0h2.12a.185.185 0 00.184-.185V9.006a.185.185 0 00-.184-.186h-2.12a.185.185 0 00-.184.185v1.888c0 .102.083.185.185.185m-2.964 0h2.119a.185.185 0 00.185-.185V9.006a.185.185 0 00-.184-.186h-2.12a.186.186 0 00-.186.186v1.887c0 .102.084.185.186.185m-2.92 0h2.12a.185.185 0 00.184-.185V9.006a.185.185 0 00-.184-.186h-2.12a.185.185 0 00-.184.185v1.888c0 .102.082.185.185.185M23.763 9.89c-.065-.051-.672-.51-1.954-.51-.338 0-.676.03-1.01.09-.458-1.052-1.275-1.595-2.45-1.63l-.225-.007-.169.15c-.257.241-.494.513-.706.808-.214.298-.38.632-.488.987-.124.4-.191.833-.2 1.269a4.174 4.174 0 01-.124 1.007 5.104 5.104 0 01-13.397.584l-.017-.03-.013-.03-.004-.012-.003-.012a3.549 3.549 0 01-.106-.872c0-.573.103-1.14.3-1.672.088-.238.196-.47.323-.694l.12-.215-.101-.196a3.445 3.445 0 00-.156-.258 2.493 2.493 0 00-.3-.33 2.03 2.03 0 00-.168-.13l-.184-.122-.185.122a2.99 2.99 0 00-.568.49 3.94 3.94 0 00-.382.54 4.019 4.019 0 00-.258.617 4.218 4.218 0 00-.115.664c-.01.215-.015.43-.015.645 0 .33.015.658.045.984a5.5 5.5 0 00.157.964c.069.302.158.598.267.887.11.29.238.572.382.842.145.27.308.53.488.778.18.247.375.482.585.703.21.22.435.424.674.61.24.187.495.355.764.504.27.15.555.275.853.375.297.1.61.174.933.222a6.05 6.05 0 001.006.074c.337 0 .674-.033 1.006-.1.332-.066.66-.165.977-.295a5.77 5.77 0 00.917-.473c.285-.19.555-.403.806-.636.25-.232.48-.49.69-.768.21-.277.396-.574.558-.887.162-.313.3-.64.413-.978.114-.338.202-.687.264-1.043a6.5 6.5 0 00.093-1.096v-.015c.005-.016.01-.031.017-.047.006-.015.013-.03.02-.043l.007-.013.003-.006.001-.003c.098-.195.202-.387.313-.576.11-.188.23-.37.358-.546.128-.175.266-.34.413-.495l.15-.15-.225-.007c-1.177-.035-1.993-.578-2.45-1.63a5.08 5.08 0 00-1.01-.09c-1.282 0-1.889.459-1.954.51l-.169.131.131.169c.494.641.743 1.41.743 2.285 0 .31-.03.616-.09.916a4.127 4.127 0 01-.27.869 3.93 3.93 0 01-.45.77 3.755 3.755 0 01-.61.664 3.56 3.56 0 01-.757.508 3.38 3.38 0 01-.883.3 3.21 3.21 0 01-.977.074 3.19 3.19 0 01-.977-.074 3.38 3.38 0 01-.883-.3 3.56 3.56 0 01-.757-.508 3.755 3.755 0 01-.61-.664 3.93 3.93 0 01-.45-.77 4.127 4.127 0 01-.27-.869 4.003 4.003 0 01-.09-.916c0-.875.249-1.644.743-2.285l.131-.169-.169-.131z"/></svg>