<svg role="img" viewBox="0 0 24 24" xmlns="http://www.w3.org/2000/svg"><title>PostgreSQL</title><path fill="#4169E1" d="M23.5594 14.7228a.5269.5269 0 00-.0563-.1191c-.139-.2632-.4768-.3418-.7884-.1779-.0848.0447-.1662.0925-.2441.1416a.9608.9608 0 00-.0415.0274c-.7792.5306-1.6885.8439-2.6315 1.0878-.8974.2322-1.8077.3766-2.7223.4816-.9275.1063-1.8595.1782-2.7927.2292a.5263.5263 0 00-.5023.5251v.0001c-.0001.2899.2347.5249.5246.5249h.0001c.9333-.051 1.8653-.1229 2.7928-.2292.9146-.105 1.8249-.2494 2.7223-.4816.9429-.244 1.8523-.5573 2.6315-1.0878a.9608.9608 0 01.0415-.0274c.0779-.0491.1593-.0969.2441-.1416.1561-.0821.3164-.1043.4668-.0607.1443.0417.2694.1535.3517.3146.0853.1672.1097.3654.0685.5576-.0406.1901-.1431.3691-.2892.5042-.1446.1337-.3204.2348-.5128.2955a4.2036 4.2036 0 01-1.3109.2145 8.5344 8.5344 0 01-.1827.0034c-.0549.0008-.1095.0015-.1641.002-.2793.0024-.5576.0048-.8362.0048-.2786 0-.5569-.0024-.8362-.0048-.0546-.0005-.1092-.0012-.1641-.002a8.5344 8.5344 0 01-.1827-.0034 4.2036 4.2036 0 01-1.3109-.2145c-.1924-.0607-.3682-.1618-.5128-.2955-.1461-.1351-.2486-.3141-.2892-.5042-.0412-.1922-.0168-.3904.0685-.5576.0823-.1611.2074-.2729.3517-.3146.1504-.0436.3107-.0214.4668.0607.0848.0447.1662.0925.2441.1416a.9608.9608 0 00.0415.0274c.7792.5306 1.6885.8439 2.6315 1.0878.8974.2322 1.8077.3766 2.7223.4816.9275.1063 1.8595.1782 2.7927.2292a.5263.5263 0 00.5247-.5249v-.0001a.5263.5263 0 00-.5023-.5251c-.9332-.051-1.8652-.1229-2.7927-.2292-.9146-.105-1.8249-.2494-2.7223-.4816-.9429-.244-1.8523-.5573-2.6315-1.0878a.9608.9608 0 01-.0415-.0274c-.0779-.0491-.1593-.0969-.2441-.1416-.3116-.1639-.6494-.0853-.7884.1779a.5269.5269 0 00-.0563.1191c-.1315.4615-.0456.9432.2382 1.3511.2742.3941.6962.6835 1.1866.8142.5151.1372 1.0507.2063 1.5922.2518.5422.0456 1.0899.0682 1.6385.0777.5486.0095 1.0979.0059 1.6472-.0108.5493-.0167 1.0986-.0502 1.6472-.1008.5486-.0506 1.0964-.1183 1.6385-.2039.5415-.0855 1.0771-.1946 1.5922-.3318.4904-.1307.9124-.421 1.1866-.8142.2838-.4079.3697-.8896.2382-1.3511z"/></svg>