<svg role="img" viewBox="0 0 24 24" xmlns="http://www.w3.org/2000/svg"><title>Adobe Photoshop</title><path fill="#31A8FF" d="M9.85 8.42c-.37-.15-.77-.21-1.18-.2-.26 0-.49.02-.68.04v3.51c.24.04.48.05.72.05.42 0 .83-.06 1.21-.2.37-.12.7-.32.97-.58.26-.26.47-.58.61-.94.14-.36.21-.77.21-1.23 0-.74-.22-1.3-.68-1.68-.43-.35-1.01-.52-1.7-.52H6.95c-.38 0-.68.31-.68.68v8.91c0 .38.31.68.68.68h.68c.38 0 .68-.31.68-.68v-2.98h.52c.98 0 1.81-.18 2.47-.53.66-.35 1.18-.82 1.57-1.4.38-.58.57-1.24.57-1.99 0-.74-.19-1.4-.57-1.99-.38-.58-.9-1.05-1.57-1.4zM19.75 0H4.25C1.9 0 0 1.9 0 4.25v15.5C0 22.1 1.9 24 4.25 24h15.5c2.35 0 4.25-1.9 4.25-4.25V4.25C24 1.9 22.1 0 19.75 0zM14.48 12.14c-.26.49-.64.93-1.11 1.28-.47.35-1.03.62-1.67.8-.64.18-1.33.27-2.08.27-.39 0-.78-.02-1.16-.07-.38-.04-.75-.11-1.11-.2v3.5c0 .38-.31.68-.68.68h-.68c-.38 0-.68-.31-.68-.68V7.37c0-.3.2-.56.48-.65.58-.17 1.24-.3 1.98-.39.74-.09 1.49-.14 2.24-.14.8 0 1.54.09 2.21.28.67.18 1.25.47 1.74.85.49.38.87.86 1.14 1.44.27.58.4 1.25.4 2.01 0 .83-.14 1.54-.4 2.13z"/></svg>