<svg role="img" viewBox="0 0 24 24" xmlns="http://www.w3.org/2000/svg"><title>Redis</title><path fill="#DC382D" d="M10.5 2.661l.54.997-1.797.644 2.409.218.748 1.246.467-1.121 2.077-.208-1.61-.613.426-1.017-1.578.519zm6.905 2.077L13.76 6.182l3.292 1.298.353-.146 3.293-1.298zm-10.51.312a2.97 1.153 0 00-2.97 1.152 2.97 1.153 0 002.97 1.153 2.97 1.153 0 002.97-1.153 2.97 1.153 0 00-2.97-1.152zM24 6.805s-8.983 4.278-10.395 4.953c-1.226.561-1.901.561-3.261.094C8.318 11.022 0 7.241 0 7.241v1.038c0 .24.332.499.966.8 0 0 7.958 3.747 10.132 4.633 2.175.886 3.483.686 5.344-.279 1.861-.965 6.564-3.034 6.564-3.034s.994-.44.994-.937zM24 10.637s-.748.534-1.127.747c0 0-6.109 2.864-8.18 3.887-2.072 1.023-4.023 1.082-6.138.395-2.116-.688-9.555-4.047-9.555-4.047v1.038c0 .24.332.499.966.8 0 0 7.958 3.747 10.132 4.633 2.175.886 3.483.686 5.344-.279 1.861-.965 6.564-3.034 6.564-3.034s.994-.44.994-.937zM24 14.405s-.748.534-1.127.747c0 0-6.109 2.864-8.18 3.887-2.072 1.023-4.023 1.082-6.138.395-2.116-.688-9.555-4.047-9.555-4.047v1.038c0 .24.332.499.966.8 0 0 7.958 3.747 10.132 4.633 2.175.886 3.483.686 5.344-.279 1.861-.965 6.564-3.034 6.564-3.034s.994-.44.994-.937z"/></svg>