<svg role="img" viewBox="0 0 24 24" xmlns="http://www.w3.org/2000/svg"><title>Redux</title><path fill="#764ABC" d="M16.634 16.504c.87-.075 1.543-.84 1.5-1.754-.047-.914-.796-1.648-1.709-1.648h-.061c-.923.047-1.66.85-1.614 1.774.043.425.194.78.5 1.05-1.064 2.095-2.677 3.625-5.097 4.702-1.647.73-3.36.855-5.064.376-1.408-.4-2.49-1.243-3.107-2.43-.9-1.73-.87-3.59.09-5.29.67-1.187 1.713-2.06 2.377-2.48-.195-.61-.422-1.63-.517-2.368-5.81 4.215-5.29 9.964-3.45 12.68 1.39 2.05 4.28 3.36 7.48 3.36.83 0 1.67-.09 2.5-.28 3.79-.76 6.66-3.08 8.31-6.68zm5.46-4.72c-2.29-2.7-5.66-4.19-9.48-4.19h-.48c-.25-.53-.79-.9-1.43-.9h-.06c-.92.05-1.66.85-1.61 1.77.04.92.8 1.65 1.71 1.65h.06c.67-.04 1.23-.49 1.45-1.14h.54c2.27 0 4.42.66 6.38 1.95 1.5.99 2.58 2.29 3.2 3.86.54 1.33.5 2.64-.12 3.82-.87 1.66-2.32 2.56-4.2 2.56-1.23 0-2.41-.36-3.05-.64-.28.23-.78.61-1.13.85 1.07.49 2.16.77 3.2.77 2.38 0 4.14-1.32 4.82-2.64.72-1.45.68-3.96-.92-6.07zm-7.72 4.19c.05.92.8 1.65 1.71 1.65h.06c.92-.05 1.66-.85 1.61-1.77-.04-.92-.8-1.65-1.71-1.65h-.06c-.06 0-.14 0-.21.02-.86-1.46-1.22-3.04-.99-4.73.16-1.26.62-2.35 1.37-3.25.62-.75 1.8-1.12 2.62-1.14 2.45-.05 3.47 3.02 3.55 4.25.66.19 1.74.54 2.5.84-.36-3.65-2.68-5.58-5.01-5.58-2.17 0-4.18 1.57-4.93 3.88-.99 3.03-.36 5.95 1.18 8.25-.07.14-.11.3-.09.47z"/></svg>